<svg width="35" height="46" fill="none" xmlns="http://www.w3.org/2000/svg"><path d="M0 5.673h4.345s2.59-.142 4.226 1.85l9.488 12.061H11.4s-2.95.13-4.145-1.89L0 5.673Z" fill="url('#paint0_linear_3279_5700')"/><path d="m14.948 30.52 3.907 6.512s1.436 3.297 6.18 3.297H35L20.888 23.121l-5.94 1.368s-1.633 2.17 0 6.03Z" fill="url('#paint1_linear_3279_5700')"/><path d="m23.011 25.712-2.287-2.794-5.764 1.57s-1.634 2.172 0 6.031l.24.412c-.019-.255-.196-4.238 7.811-5.219Z" fill="url('#paint2_linear_3279_5700')"/><path d="M15.183 30.92s-1.806-4.68 4.085-6.923c0 0 4.197-1.514 7.003-.616 0 0-.194-3.42-7.087-3.196 0 0-3.64-.028-6.502.982 0 0-3.03.812-.779 4.316l3.28 5.438Z" fill="url('#paint3_linear_3279_5700')"/><defs><linearGradient id="paint0_linear_3279_5700" x1="9.029" y1="5.67" x2="9.029" y2="19.586" gradientUnits="userSpaceOnUse"><stop offset=".033" stop-color="#19AADE"/><stop offset=".951" stop-color="#134E8E"/></linearGradient><linearGradient id="paint1_linear_3279_5700" x1="24.611" y1="23.121" x2="24.611" y2="40.329" gradientUnits="userSpaceOnUse"><stop offset=".132" stop-color="#E02527"/><stop offset=".742" stop-color="#A1141C"/></linearGradient><linearGradient id="paint2_linear_3279_5700" x1="14.235" y1="26.924" x2="23.011" y2="26.924" gradientUnits="userSpaceOnUse"><stop offset=".005" stop-color="#71251D"/><stop offset=".742" stop-color="#C73127"/></linearGradient><linearGradient id="paint3_linear_3279_5700" x1="11.072" y1="25.548" x2="26.272" y2="25.548" gradientUnits="userSpaceOnUse"><stop offset=".148" stop-color="#E8EBEE"/><stop offset=".742" stop-color="#95A5AF"/></linearGradient></defs></svg>