<svg width="35" height="46" fill="none" xmlns="http://www.w3.org/2000/svg"><path fill-rule="evenodd" clip-rule="evenodd" d="M17.5 6.52c-8.755 0-15.92 7.203-15.92 16.173 0 8.97 7.166 16.172 15.92 16.172 8.755 0 15.92-7.202 15.92-16.172S26.254 6.519 17.5 6.519ZM0 22.692C0 12.96 7.795 5 17.5 5 27.205 5 35 12.96 35 22.693s-7.796 17.692-17.5 17.692S0 32.425 0 22.693Z" fill="#CF4037"/><path fill-rule="evenodd" clip-rule="evenodd" d="M22.546 18.98c-.77-5.247-5.27-7.838-8.08-9.39-2.607-1.44-4.942-2.094-4.999-1.925a12.845 12.845 0 0 1 4.871 10.103c0 6.732-5.125 12.251-11.636 12.766l.412.625c8.335-1.276 30.642-5.348 30.642-5.348l.059-.478-13.534-.456c1.494-1.552 2.517-4.187 2.265-5.897Z" fill="#CF4037"/></svg>