<svg width="109" height="16" fill="none" xmlns="http://www.w3.org/2000/svg"><path d="m5.349 7.98 97.008.138" stroke="#CACACA" stroke-width=".837" stroke-linecap="square" stroke-dasharray="1.67 4.18"/><path d="M51.195 15.552h1.652l4.132-6.36h4.546c.686 0 1.24-.532 1.24-1.192 0-.66-.554-1.192-1.24-1.192h-4.546L52.847.447h-1.652l2.066 6.36h-4.546l-1.24-1.59h-1.239L47.063 8l-.827 2.782h1.24l1.24-1.59h4.545l-2.066 6.36Z" fill="#1262AE"/><circle cx="5.445" cy="7.948" r="3.663" fill="#fff" stroke="#1262AE" stroke-width="1.674"/><path d="M107.218 8.632c0 1.818-1.542 3.347-3.513 3.347-1.97 0-3.512-1.529-3.512-3.347 0-1.819 1.542-3.347 3.512-3.347 1.971 0 3.513 1.528 3.513 3.347Z" fill="#fff" stroke="#1262AE" stroke-width="1.674"/></svg>