<svg width="46" height="39" fill="none" xmlns="http://www.w3.org/2000/svg"><path d="M10.232 26.947c0 1.466.656 2.783 1.683 3.7v2.133c0 1.383 1.127 2.5 2.523 2.5a2.508 2.508 0 0 0 2.524-2.5v-.833H30.42v.833c0 1.367 1.127 2.5 2.523 2.5 1.38 0 2.524-1.117 2.524-2.5v-2.133c1.026-.917 1.682-2.234 1.682-3.7V10.28c0-5.833-6.023-6.667-13.459-6.667s-13.459.834-13.459 6.667v16.667Zm5.889 1.666a2.509 2.509 0 0 1-2.524-2.5c0-1.383 1.127-2.5 2.524-2.5a2.508 2.508 0 0 1 2.523 2.5c0 1.384-1.127 2.5-2.523 2.5Zm15.14 0a2.508 2.508 0 0 1-2.523-2.5c0-1.383 1.127-2.5 2.524-2.5a2.508 2.508 0 0 1 2.523 2.5c0 1.384-1.127 2.5-2.523 2.5Zm2.524-10H13.597V10.28h20.188v8.333Z" fill="#fff"/></svg>