<svg width="45" height="39" fill="none" xmlns="http://www.w3.org/2000/svg"><path d="M32.557 31.9c-.055-1.173-.128-2.34-.186-3.505-.188-3.643-.173-7.34-.37-11-.196-3.635-.08-7.27-.183-10.904-.021-.756.012-2.247-.77-2.678-1.68-.924-2.678 1.598-3.106 2.625-.77 1.864-1.216 3.825-1.767 5.756-.469 1.653-1.003 3.301-1.184 5.013-.135 1.284-.122 2.722.549 3.879.337.581.92.977 1.582 1.145.689.176 1.476-.055 2.13.256a.83.83 0 0 1 .384.421c.211.55.011 1.385-.055 1.953-.21 1.829-.432 3.676-.53 5.513-.06 1.111-.124 2.534.548 3.503.412.588 1.247 1.137 2 .844 1.126-.43 1.005-1.887.958-2.82ZM18.23 4.625c-.323.13-.2 1.286-.215 1.642-.021.639.022 1.484-.055 2.312a.103.103 0 0 1-.002.017c-.007.058-.012.12-.022.185-.01.064-.02.125-.028.187-.07.404-.2.882-.449 1.11-.282.263-.913.208-1.133-.102-.358-.504-.332-1.63-.353-1.662a50.424 50.424 0 0 0-.209-3.205c-.01-.08-.025-.561-.464-.612-.205-.023-.42.152-.49.47-.207.942-.4 2.736-.412 3.019a1.04 1.04 0 0 0-.004.085v.008c-.002.058-.072 1.464-.428 1.95-.185.253-.668.453-1.148.184-.191-.108-.322-.317-.414-.54-.502-1.562-.052-3.282.013-4.101.018-.23.227-1-.238-.975-.702.038-1.607 3.026-1.77 3.71-.396 1.705-.456 3.525.234 5.169a3.728 3.728 0 0 0 2.064 2.016c.412.158.869.273 1.352.34-.174 3.873-.371 7.915-.551 10.165-.139 1.692-.302 3.404-.28 5.104.013 1.015.002 2.226.669 3.078.697.89 2.168.48 2.565-.571.446-1.185.316-2.566.164-4.742-.152-2.178-.323-5.15-.418-6.748a119.793 119.793 0 0 1-.2-6.288c1.239-.177 2.394-.708 3.04-1.686.284-.427.471-.905.599-1.396.195-.745.29-1.56.248-2.328-.043-.707-.623-6.212-1.665-5.795Z" fill="#fff"/></svg>