<svg width="45" height="39" fill="none" xmlns="http://www.w3.org/2000/svg"><path d="M33.898 11.003c-.315-.86-1.197-1.473-2.237-1.473h-3.94V8.072c0-.802-.71-1.459-1.576-1.459H19.84c-.867 0-1.576.657-1.576 1.459V9.53h-3.94c-1.04 0-1.906.612-2.237 1.473l-3.105 8.269c-.11.306-.173.627-.173.962v10.442c0 1.21 1.056 2.187 2.364 2.187 1.308 0 2.363-.977 2.363-2.187v-.73H32.45v.73c0 1.196 1.055 2.187 2.363 2.187 1.293 0 2.364-.977 2.364-2.187V20.234c0-.32-.063-.656-.173-.962l-3.105-8.27ZM14.325 25.572c-1.308 0-2.364-.977-2.364-2.188 0-1.21 1.056-2.187 2.364-2.187 1.308 0 2.364.977 2.364 2.187s-1.056 2.188-2.364 2.188Zm17.336 0c-1.309 0-2.364-.977-2.364-2.188 0-1.21 1.055-2.187 2.364-2.187 1.308 0 2.363.977 2.363 2.187s-1.055 2.188-2.363 2.188Zm-19.7-7.292 2.364-6.563h17.336l2.363 6.563H11.961Z" fill="#fff"/></svg>