<svg width="35" height="46" fill="none" xmlns="http://www.w3.org/2000/svg"><path fill-rule="evenodd" clip-rule="evenodd" d="M34.732 25.976c.178-.984.268-1.98.268-2.98 0-.614-.034-1.193-.1-1.745-.014-.12-2.01 3.855-5.203 6.372 2.221-1.933 5.119-6.977 5.078-7.196-.035-.19-.075-.378-.12-.566-.38-1.627-1.07-3.074-2.008-4.646-.29 3.337-1.306 6.891-3.972 9.965 2.766-3.226 3.729-10.572 3.07-11.583-2.654-4.042-8.242-7.58-14.224-7.58l-.042.107v-.1c-5.983 0-11.57 3.538-14.224 7.58-.66 1.011.303 8.358 3.07 11.583-2.666-3.074-3.682-6.628-3.972-9.965-.94 1.573-1.627 3.019-2.009 4.646-.044.188-.084.377-.119.566-.04.22 2.857 5.263 5.078 7.197C2.11 25.113.114 21.138.1 21.258c-.068.58-.101 1.162-.1 1.746 0 1.016.092 2.011.268 2.979.163.894 3.875 3.357 3.97 3.435C1.544 28.395.43 26.785.532 27.174c1.914 7.361 8.776 12.81 16.948 12.81v-.008h.042c8.172 0 15.034-5.447 16.947-12.81.102-.388-1.01 1.221-3.707 2.244.096-.077 3.808-2.54 3.97-3.434Zm-11.56.653a3.997 3.997 0 0 1-.539.187c-1.675.444-4.005.28-5.095-1.102-1.101-1.398-.796-3.666.06-5.098.865-1.445 2.164-2.52 3.318-3.736a68.53 68.53 0 0 1 1.689-1.712c.372-.366 1.388-1.15 1.367-1.673-.01-.248-.473-.684-.602-.918-.188-.342-.305-.684-.506-1.009-.445-.718-1.042-1.047-1.846-1.201-1.005-.192-1.726-.107-2.559.435-.626.408-1.278 1.168-2.043 1.248-1.209.126-6.472.974-6.722 1.127.65-.047 8.586.103 9.486.318 1.057.252 1.009 1.08.291 1.731-2.257 2.047-5.583 3.265-7 6.081-.663 1.317-1.089 2.209-1.09 3.749-.001.634.05 1.936.857 3.553-.037-.023-1.275-1.442-1.325-2.642-2.987-1.94-4.506-4.842-4.506-8.618 0-5.986 4.948-10.838 11.053-10.838 6.104 0 11.053 4.852 11.053 10.838 0 3.936-1.732 7.577-5.342 9.28Z" fill="#B4282E"/><path fill-rule="evenodd" clip-rule="evenodd" d="m17.938 29.917-1.442 3.849c-.831 2.218-4.36 1.752-4.483 1.752-.29 0-.512-.031-.734-.235l.528-.57a.908.908 0 0 0 .524.148c.165 0 1.978.382 2.518-1.095l1.442-3.849h1.647Zm10.183 4.827-.243.649h-4.961l2.051-5.476h1.665l-1.809 4.827h3.297Zm-7.396-4.813-4.395 5.475h.853l1.113-1.486h1.99l-.331 1.486h1.754l1.347-5.475h-2.331Zm-1.85 3.212 2.268-2.695-.625 2.695h-1.643Z" fill="#fff"/></svg>