<svg width="24" height="24" fill="none" xmlns="http://www.w3.org/2000/svg"><g clip-path="url('#clip0_3279_2359')" fill="#1262AF"><path d="M12 21.891A9.891 9.891 0 1 1 12 2.11a9.891 9.891 0 0 1 0 19.782Zm0 1.414a11.304 11.304 0 1 0 0-22.61 11.304 11.304 0 0 0 0 22.61Z"/><path d="M9.476 7.2a.815.815 0 0 1 .848.062l5.705 4.074a.815.815 0 0 1 0 1.327l-5.705 4.075a.815.815 0 0 1-1.29-.663v-8.15a.815.815 0 0 1 .442-.725Z"/></g><defs><clipPath id="clip0_3279_2359"><path fill="#fff" d="M0 0h24v24H0z"/></clipPath></defs></svg>